<?xml version="1.0" encoding="UTF-8"?>
<!DOCTYPE svg PUBLIC "-//W3C//DTD SVG 1.1//EN" "http://www.w3.org/Graphics/SVG/1.1/DTD/svg11.dtd">
<svg xmlns="http://www.w3.org/2000/svg" version="1.1" width="256px" height="256px" style="shape-rendering:geometricPrecision; text-rendering:geometricPrecision; image-rendering:optimizeQuality; fill-rule:evenodd; clip-rule:evenodd" xmlns:xlink="http://www.w3.org/1999/xlink">
<g><path style="opacity:0.985" fill="#f0ede6" d="M 115.5,6.5 C 115.5,6.83333 115.5,7.16667 115.5,7.5C 115.5,17.1667 115.5,26.8333 115.5,36.5C 113.676,45.1594 116.842,47.8261 125,44.5C 125.497,41.854 125.664,39.1873 125.5,36.5C 125.5,26.8333 125.5,17.1667 125.5,7.5C 125.5,7.16667 125.5,6.83333 125.5,6.5C 132.798,7.42158 140.131,8.25492 147.5,9C 150.104,9.39034 152.438,10.2237 154.5,11.5C 153.773,16.3461 152.44,21.0128 150.5,25.5C 149.129,27.936 148.129,30.6027 147.5,33.5C 146.069,34.7804 145.402,36.4471 145.5,38.5C 143.547,41.24 143.214,44.24 144.5,47.5C 146.768,48.5443 149.101,48.711 151.5,48C 152.337,46.9887 152.67,45.8221 152.5,44.5C 154.293,42.5739 155.293,40.2406 155.5,37.5C 156.302,34.4262 157.302,31.4262 158.5,28.5C 160.728,24.042 162.395,19.3753 163.5,14.5C 168.895,15.7376 173.895,17.7376 178.5,20.5C 182.5,23.8333 186.5,27.1667 190.5,30.5C 187.152,33.8514 184.152,37.5181 181.5,41.5C 179.738,42.2623 178.738,43.5956 178.5,45.5C 175.8,47.2344 173.8,49.5677 172.5,52.5C 167.802,54.8885 167.469,57.7218 171.5,61C 175.215,61.4675 177.881,59.9675 179.5,56.5C 182.573,54.4309 184.906,51.7642 186.5,48.5C 188.167,47.5 189.5,46.1667 190.5,44.5C 192.862,41.808 195.196,39.1413 197.5,36.5C 205.016,43.2056 211.35,50.8723 216.5,59.5C 214.206,61.653 211.54,63.3197 208.5,64.5C 206.147,65.3403 204.147,66.6736 202.5,68.5C 200.577,68.795 198.91,69.6283 197.5,71C 200.974,77.1761 205.307,78.0094 210.5,73.5C 212.674,73.2503 214.341,72.2503 215.5,70.5C 217.368,69.7368 219.035,68.7368 220.5,67.5C 226.306,76.2379 229.973,85.9046 231.5,96.5C 229.379,96.3253 227.379,96.6586 225.5,97.5C 217.916,97.0799 216.583,99.7466 221.5,105.5C 223.299,106.788 224.965,106.788 226.5,105.5C 228.735,105.795 230.735,105.461 232.5,104.5C 235.167,115.167 235.167,125.833 232.5,136.5C 232.5,135.833 232.167,135.5 231.5,135.5C 228.103,134.802 224.603,134.135 221,133.5C 220.667,134.833 220.333,136.167 220,137.5C 218.303,138.364 217.137,139.697 216.5,141.5C 219.327,142.932 222.327,143.599 225.5,143.5C 227.379,144.341 229.379,144.675 231.5,144.5C 229.973,155.095 226.306,164.762 220.5,173.5C 219.035,172.263 217.368,171.263 215.5,170.5C 212.322,167.742 208.655,165.742 204.5,164.5C 204.5,164.167 204.5,163.833 204.5,163.5C 212.865,163.64 216.365,159.64 215,151.5C 213.853,149.181 212.019,147.848 209.5,147.5C 208.791,146.596 207.791,146.263 206.5,146.5C 206.5,130.167 206.5,113.833 206.5,97.5C 208.698,97.8799 210.365,97.2132 211.5,95.5C 217.335,89.5115 216.668,84.3449 209.5,80C 196.833,79.3333 184.167,79.3333 171.5,80C 168.441,81.0574 165.941,82.8907 164,85.5C 152.189,80.0407 139.689,78.0407 126.5,79.5C 118.833,79.6667 111.167,79.8333 103.5,80C 99.1392,82.2258 97.6392,85.7258 99,90.5C 99.5661,93.2287 101.066,95.2287 103.5,96.5C 104.568,97.4345 105.901,97.7678 107.5,97.5C 107.5,113.833 107.5,130.167 107.5,146.5C 105.533,146.739 103.699,146.406 102,145.5C 97.7845,139.569 93.9512,133.402 90.5,127C 102.032,117.531 104.532,106.031 98,92.5C 91.8082,85.3199 83.9749,81.1532 74.5,80C 60.1667,79.3333 45.8333,79.3333 31.5,80C 24.9896,85.4609 24.9896,90.9609 31.5,96.5C 32.5676,97.4345 33.901,97.7678 35.5,97.5C 35.5,113.833 35.5,130.167 35.5,146.5C 33.901,146.232 32.5676,146.566 31.5,147.5C 27.145,149.403 25.645,152.736 27,157.5C 27.8635,161.518 30.3635,163.518 34.5,163.5C 33.4726,165.194 32.1392,166.527 30.5,167.5C 27.8021,167.845 25.8021,169.178 24.5,171.5C 22.5,172.167 20.5,172.833 18.5,173.5C 13.751,164.332 10.4177,154.666 8.5,144.5C 10.9496,144.702 13.283,144.369 15.5,143.5C 18.6727,143.599 21.6727,142.932 24.5,141.5C 23.1622,138.824 21.8289,136.158 20.5,133.5C 16.6973,134.104 13.0306,134.77 9.5,135.5C 8.83333,135.833 8.16667,136.167 7.5,136.5C 6.16667,125.833 6.16667,115.167 7.5,104.5C 9.04181,105.301 10.7085,105.634 12.5,105.5C 19.0501,107.751 21.8835,105.418 21,98.5C 16.9605,97.2436 12.7939,96.577 8.5,96.5C 10.6419,86.407 13.9753,76.7404 18.5,67.5C 20.5,68.1667 22.5,68.8333 24.5,69.5C 25.2623,71.2624 26.5956,72.2624 28.5,72.5C 34.0107,78.2378 39.0107,77.7378 43.5,71C 41.6365,69.5693 39.6365,68.4026 37.5,67.5C 35.0713,66.4488 32.738,65.1155 30.5,63.5C 28.1667,62.1667 25.8333,60.8333 23.5,59.5C 28.3125,50.0151 34.9792,42.0151 43.5,35.5C 45.4512,38.7861 47.7846,41.7861 50.5,44.5C 51.5,46.1667 52.8333,47.5 54.5,48.5C 56.4302,52.1002 59.0969,55.1002 62.5,57.5C 63.9418,58.8195 64.6085,60.4862 64.5,62.5C 68.4102,62.3849 71.0768,60.5515 72.5,57C 72.2849,55.0922 71.2849,53.9256 69.5,53.5C 67.6281,50.4181 65.2948,47.7514 62.5,45.5C 62.2624,43.5956 61.2624,42.2623 59.5,41.5C 56.5,37.5 53.5,33.5 50.5,29.5C 58.3951,22.7144 67.3951,17.7144 77.5,14.5C 78.6054,19.3753 80.272,24.042 82.5,28.5C 83.6976,31.4262 84.6976,34.4262 85.5,37.5C 85.4021,39.5529 86.0687,41.2196 87.5,42.5C 87.8693,44.4412 88.536,46.2745 89.5,48C 92.1922,48.4298 94.8589,48.2631 97.5,47.5C 97.7847,44.1709 97.1181,41.1709 95.5,38.5C 95.5979,36.4471 94.9313,34.7804 93.5,33.5C 92.7333,29.8512 91.3999,26.5178 89.5,23.5C 88.0901,19.6033 87.0901,15.6033 86.5,11.5C 88.5625,10.2237 90.8958,9.39034 93.5,9C 100.869,8.25492 108.202,7.42158 115.5,6.5 Z"/></g>
<g><path style="opacity:1" fill="#fc2d2b" d="M 115.5,7.5 C 115.5,7.16667 115.5,6.83333 115.5,6.5C 118.833,6.5 122.167,6.5 125.5,6.5C 125.5,6.83333 125.5,7.16667 125.5,7.5C 124.515,11.6344 124.182,15.9677 124.5,20.5C 121.833,20.5 119.167,20.5 116.5,20.5C 116.818,15.9677 116.485,11.6344 115.5,7.5 Z"/></g>
<g><path style="opacity:0.299" fill="#020202" d="M 178.5,20.5 C 203.368,30.5309 222.534,47.1976 236,70.5C 256.667,110.5 256.667,150.5 236,190.5C 207.257,235.616 166.091,255.116 112.5,249C 72.1927,242.157 42.8594,220.657 24.5,184.5C 29.9273,192.016 36.2606,198.683 43.5,204.5C 45.4426,207.471 48.1092,209.471 51.5,210.5C 58.9267,217.55 67.5934,222.55 77.5,225.5C 80.0836,227.472 83.0836,228.472 86.5,228.5C 95.766,231.817 105.433,233.484 115.5,233.5C 115.5,234.167 115.833,234.5 116.5,234.5C 119.167,234.5 121.833,234.5 124.5,234.5C 125.167,234.5 125.5,234.167 125.5,233.5C 135.479,233.448 145.146,231.781 154.5,228.5C 157.916,228.472 160.916,227.472 163.5,225.5C 173.123,222.026 181.79,217.026 189.5,210.5C 192.455,208.878 195.122,206.878 197.5,204.5C 204.549,197.386 210.883,189.719 216.5,181.5C 218.341,179.151 219.674,176.485 220.5,173.5C 226.306,164.762 229.973,155.095 231.5,144.5C 232.092,141.873 232.425,139.206 232.5,136.5C 235.167,125.833 235.167,115.167 232.5,104.5C 232.425,101.794 232.092,99.1272 231.5,96.5C 229.973,85.9046 226.306,76.2379 220.5,67.5C 220.104,64.279 218.771,61.6123 216.5,59.5C 211.35,50.8723 205.016,43.2056 197.5,36.5C 195.766,33.7997 193.432,31.7997 190.5,30.5C 186.5,27.1667 182.5,23.8333 178.5,20.5 Z"/></g>
<g><path style="opacity:1" fill="#fc3734" d="M 86.5,11.5 C 87.0901,15.6033 88.0901,19.6033 89.5,23.5C 88.5142,26.7604 86.1808,28.4271 82.5,28.5C 80.272,24.042 78.6054,19.3753 77.5,14.5C 80.2084,12.6469 83.2084,11.6469 86.5,11.5 Z"/></g>
<g><path style="opacity:1" fill="#fb3a37" d="M 154.5,11.5 C 157.792,11.6469 160.792,12.6469 163.5,14.5C 162.395,19.3753 160.728,24.042 158.5,28.5C 155.083,28.977 152.416,27.977 150.5,25.5C 152.44,21.0128 153.773,16.3461 154.5,11.5 Z"/></g>
<g><path style="opacity:1" fill="#fa5f5c" d="M 89.5,23.5 C 91.3999,26.5178 92.7333,29.8512 93.5,33.5C 93.5,34.8333 93.5,36.1667 93.5,37.5C 90.8333,37.5 88.1667,37.5 85.5,37.5C 84.6976,34.4262 83.6976,31.4262 82.5,28.5C 86.1808,28.4271 88.5142,26.7604 89.5,23.5 Z"/></g>
<g><path style="opacity:1" fill="#f79590" d="M 115.5,7.5 C 116.485,11.6344 116.818,15.9677 116.5,20.5C 116.5,23.8333 116.5,27.1667 116.5,30.5C 119.167,30.5 121.833,30.5 124.5,30.5C 124.5,27.1667 124.5,23.8333 124.5,20.5C 124.182,15.9677 124.515,11.6344 125.5,7.5C 125.5,17.1667 125.5,26.8333 125.5,36.5C 124.596,37.209 124.263,38.209 124.5,39.5C 121.833,39.5 119.167,39.5 116.5,39.5C 116.737,38.209 116.404,37.209 115.5,36.5C 115.5,26.8333 115.5,17.1667 115.5,7.5 Z"/></g>
<g><path style="opacity:1" fill="#fa5e5a" d="M 116.5,20.5 C 119.167,20.5 121.833,20.5 124.5,20.5C 124.5,23.8333 124.5,27.1667 124.5,30.5C 121.833,30.5 119.167,30.5 116.5,30.5C 116.5,27.1667 116.5,23.8333 116.5,20.5 Z"/></g>
<g><path style="opacity:1" fill="#f96b68" d="M 150.5,25.5 C 152.416,27.977 155.083,28.977 158.5,28.5C 157.302,31.4262 156.302,34.4262 155.5,37.5C 152.833,37.5 150.167,37.5 147.5,37.5C 147.5,36.1667 147.5,34.8333 147.5,33.5C 148.129,30.6027 149.129,27.936 150.5,25.5 Z"/></g>
<g><path style="opacity:1" fill="#f7928e" d="M 93.5,33.5 C 94.9313,34.7804 95.5979,36.4471 95.5,38.5C 94.5266,42.9871 91.8599,44.3204 87.5,42.5C 86.0687,41.2196 85.4021,39.5529 85.5,37.5C 88.1667,37.5 90.8333,37.5 93.5,37.5C 93.5,36.1667 93.5,34.8333 93.5,33.5 Z"/></g>
<g><path style="opacity:1" fill="#f94441" d="M 190.5,30.5 C 193.432,31.7997 195.766,33.7997 197.5,36.5C 195.196,39.1413 192.862,41.808 190.5,44.5C 189.178,44.33 188.011,44.6634 187,45.5C 184.869,44.3852 183.035,43.0519 181.5,41.5C 184.152,37.5181 187.152,33.8514 190.5,30.5 Z"/></g>
<g><path style="opacity:1" fill="#f79a96" d="M 147.5,33.5 C 147.5,34.8333 147.5,36.1667 147.5,37.5C 150.167,37.5 152.833,37.5 155.5,37.5C 155.293,40.2406 154.293,42.5739 152.5,44.5C 148.653,44.1003 146.32,42.1003 145.5,38.5C 145.402,36.4471 146.069,34.7804 147.5,33.5 Z"/></g>
<g><path style="opacity:1" fill="#fb4a46" d="M 50.5,29.5 C 53.5,33.5 56.5,37.5 59.5,41.5C 57.9646,43.0519 56.1313,44.3852 54,45.5C 52.9887,44.6634 51.8221,44.33 50.5,44.5C 47.7846,41.7861 45.4512,38.7861 43.5,35.5C 45.6068,33.2733 47.9401,31.2733 50.5,29.5 Z"/></g>
<g><path style="opacity:1" fill="#f4cbc5" d="M 115.5,36.5 C 116.404,37.209 116.737,38.209 116.5,39.5C 119.167,39.5 121.833,39.5 124.5,39.5C 124.263,38.209 124.596,37.209 125.5,36.5C 125.664,39.1873 125.497,41.854 125,44.5C 116.842,47.8261 113.676,45.1594 115.5,36.5 Z"/></g>
<g><path style="opacity:1" fill="#f4bdb8" d="M 95.5,38.5 C 97.1181,41.1709 97.7847,44.1709 97.5,47.5C 94.8589,48.2631 92.1922,48.4298 89.5,48C 88.536,46.2745 87.8693,44.4412 87.5,42.5C 91.8599,44.3204 94.5266,42.9871 95.5,38.5 Z"/></g>
<g><path style="opacity:1" fill="#f4beb9" d="M 145.5,38.5 C 146.32,42.1003 148.653,44.1003 152.5,44.5C 152.67,45.8221 152.337,46.9887 151.5,48C 149.101,48.711 146.768,48.5443 144.5,47.5C 143.214,44.24 143.547,41.24 145.5,38.5 Z"/></g>
<g><path style="opacity:1" fill="#f96b67" d="M 59.5,41.5 C 61.2624,42.2623 62.2624,43.5956 62.5,45.5C 61.0779,49.4641 58.4112,50.4641 54.5,48.5C 52.8333,47.5 51.5,46.1667 50.5,44.5C 51.8221,44.33 52.9887,44.6634 54,45.5C 56.1313,44.3852 57.9646,43.0519 59.5,41.5 Z"/></g>
<g><path style="opacity:1" fill="#f96c68" d="M 181.5,41.5 C 183.035,43.0519 184.869,44.3852 187,45.5C 188.011,44.6634 189.178,44.33 190.5,44.5C 189.5,46.1667 188.167,47.5 186.5,48.5C 184.254,49.2142 181.921,49.0475 179.5,48C 178.748,47.3292 178.414,46.4959 178.5,45.5C 178.738,43.5956 179.738,42.2623 181.5,41.5 Z"/></g>
<g><path style="opacity:1" fill="#f79793" d="M 178.5,45.5 C 178.414,46.4959 178.748,47.3292 179.5,48C 181.921,49.0475 184.254,49.2142 186.5,48.5C 184.906,51.7642 182.573,54.4309 179.5,56.5C 177.184,55.1944 174.85,53.8611 172.5,52.5C 173.8,49.5677 175.8,47.2344 178.5,45.5 Z"/></g>
<g><path style="opacity:1" fill="#f69d98" d="M 62.5,45.5 C 65.2948,47.7514 67.6281,50.4181 69.5,53.5C 67.6644,55.588 65.3311,56.9213 62.5,57.5C 59.0969,55.1002 56.4302,52.1002 54.5,48.5C 58.4112,50.4641 61.0779,49.4641 62.5,45.5 Z"/></g>
<g><path style="opacity:1" fill="#f4cbc5" d="M 172.5,52.5 C 174.85,53.8611 177.184,55.1944 179.5,56.5C 177.881,59.9675 175.215,61.4675 171.5,61C 167.469,57.7218 167.802,54.8885 172.5,52.5 Z"/></g>
<g><path style="opacity:1" fill="#f3d4cd" d="M 69.5,53.5 C 71.2849,53.9256 72.2849,55.0922 72.5,57C 71.0768,60.5515 68.4102,62.3849 64.5,62.5C 64.6085,60.4862 63.9418,58.8195 62.5,57.5C 65.3311,56.9213 67.6644,55.588 69.5,53.5 Z"/></g>
<g><path style="opacity:1" fill="#f96460" d="M 23.5,59.5 C 25.8333,60.8333 28.1667,62.1667 30.5,63.5C 30.1667,67.1667 28.1667,69.1667 24.5,69.5C 22.5,68.8333 20.5,68.1667 18.5,67.5C 19.6803,64.4604 21.347,61.7937 23.5,59.5 Z"/></g>
<g><path style="opacity:1" fill="#f66965" d="M 216.5,59.5 C 218.771,61.6123 220.104,64.279 220.5,67.5C 219.035,68.7368 217.368,69.7368 215.5,70.5C 210.513,71.009 208.18,69.009 208.5,64.5C 211.54,63.3197 214.206,61.653 216.5,59.5 Z"/></g>
<g><path style="opacity:1" fill="#f78783" d="M 30.5,63.5 C 32.738,65.1155 35.0713,66.4488 37.5,67.5C 36.1701,71.918 33.1701,73.5847 28.5,72.5C 26.5956,72.2624 25.2623,71.2624 24.5,69.5C 28.1667,69.1667 30.1667,67.1667 30.5,63.5 Z"/></g>
<g><path style="opacity:1" fill="#f5b0ab" d="M 202.5,68.5 C 204.114,71.769 206.781,73.4357 210.5,73.5C 205.307,78.0094 200.974,77.1761 197.5,71C 198.91,69.6283 200.577,68.795 202.5,68.5 Z"/></g>
<g><path style="opacity:1" fill="#f79692" d="M 208.5,64.5 C 208.18,69.009 210.513,71.009 215.5,70.5C 214.341,72.2503 212.674,73.2503 210.5,73.5C 206.781,73.4357 204.114,71.769 202.5,68.5C 204.147,66.6736 206.147,65.3403 208.5,64.5 Z"/></g>
<g><path style="opacity:1" fill="#f5aea9" d="M 37.5,67.5 C 39.6365,68.4026 41.6365,69.5693 43.5,71C 39.0107,77.7378 34.0107,78.2378 28.5,72.5C 33.1701,73.5847 36.1701,71.918 37.5,67.5 Z"/></g>
<g><path style="opacity:1" fill="#19234c" d="M 107.5,146.5 C 108.497,130.008 108.83,113.342 108.5,96.5C 106.833,96.5 105.167,96.5 103.5,96.5C 101.066,95.2287 99.5661,93.2287 99,90.5C 97.6392,85.7258 99.1392,82.2258 103.5,80C 111.167,79.8333 118.833,79.6667 126.5,79.5C 139.689,78.0407 152.189,80.0407 164,85.5C 165.941,82.8907 168.441,81.0574 171.5,80C 184.167,79.3333 196.833,79.3333 209.5,80C 216.668,84.3449 217.335,89.5115 211.5,95.5C 209.5,95.8333 207.5,96.1667 205.5,96.5C 205.5,113.5 205.5,130.5 205.5,147.5C 206.833,147.5 208.167,147.5 209.5,147.5C 212.019,147.848 213.853,149.181 215,151.5C 216.365,159.64 212.865,163.64 204.5,163.5C 200.167,163.5 195.833,163.5 191.5,163.5C 184.159,163.666 176.826,163.5 169.5,163C 164.167,157.667 164.167,152.333 169.5,147C 171.134,146.506 172.801,146.34 174.5,146.5C 175.659,135.674 175.826,124.674 175,113.5C 174.283,114.044 173.783,114.711 173.5,115.5C 169.707,122.918 163.707,127.751 155.5,130C 151.56,131.015 147.56,131.515 143.5,131.5C 141.833,131.5 140.167,131.5 138.5,131.5C 138.5,136.833 138.5,142.167 138.5,147.5C 139.833,147.5 141.167,147.5 142.5,147.5C 148.027,149.221 149.86,152.888 148,158.5C 146.457,160.378 144.624,161.878 142.5,163C 121.5,163.667 100.5,163.667 79.5,163C 78.0337,162.365 76.7003,161.531 75.5,160.5C 74.2997,161.531 72.9663,162.365 71.5,163C 62.8397,163.5 54.1731,163.666 45.5,163.5C 41.8333,163.5 38.1667,163.5 34.5,163.5C 30.3635,163.518 27.8635,161.518 27,157.5C 25.645,152.736 27.145,149.403 31.5,147.5C 33.1667,147.5 34.8333,147.5 36.5,147.5C 36.5,130.5 36.5,113.5 36.5,96.5C 34.8333,96.5 33.1667,96.5 31.5,96.5C 24.9896,90.9609 24.9896,85.4609 31.5,80C 45.8333,79.3333 60.1667,79.3333 74.5,80C 83.9749,81.1532 91.8082,85.3199 98,92.5C 104.532,106.031 102.032,117.531 90.5,127C 93.9512,133.402 97.7845,139.569 102,145.5C 103.699,146.406 105.533,146.739 107.5,146.5 Z"/></g>
<g><path style="opacity:1" fill="#6b6953" d="M 147.5,87.5 C 133.459,86.8514 119.792,87.5181 106.5,89.5C 105.596,88.791 105.263,87.791 105.5,86.5C 119.677,86.1709 133.677,86.5042 147.5,87.5 Z"/></g>
<g><path style="opacity:1" fill="#f6db64" d="M 63.5,126.5 C 62.8166,124.824 61.4832,124.157 59.5,124.5C 59.1743,132.684 59.5076,140.684 60.5,148.5C 60.2965,150.39 60.9632,151.89 62.5,153C 64.9269,153.902 67.2603,154.736 69.5,155.5C 57.6547,155.828 45.988,155.495 34.5,154.5C 37.3129,153.918 39.9796,152.918 42.5,151.5C 43.6625,131.671 43.8291,111.671 43,91.5C 42.6174,90.944 42.1174,90.6107 41.5,90.5C 39.1766,89.9416 36.8432,89.2749 34.5,88.5C 49.1553,87.3338 63.822,87.1672 78.5,88C 90.9647,91.1154 96.1313,98.9487 94,111.5C 91.7685,116.731 87.9352,120.231 82.5,122C 81.6433,122.689 80.9767,123.522 80.5,124.5C 85.965,134.602 92.2984,144.102 99.5,153C 100.448,153.483 101.448,153.649 102.5,153.5C 102.5,154.5 102.5,155.5 102.5,156.5C 95.5,156.5 88.5,156.5 81.5,156.5C 76.0178,146.205 70.0178,136.205 63.5,126.5 Z"/></g>
<g><path style="opacity:1" fill="#f6db64" d="M 147.5,87.5 C 155.888,87.9412 162.388,91.6079 167,98.5C 170.032,114.72 163.199,123.387 146.5,124.5C 141.5,124.5 136.5,124.5 131.5,124.5C 131.174,133.017 131.507,141.35 132.5,149.5C 133.609,153.602 136.275,155.269 140.5,154.5C 129.341,155.659 118.008,155.826 106.5,155C 108.058,154.79 109.391,154.29 110.5,153.5C 112.371,153.141 113.871,152.141 115,150.5C 115.667,131.167 115.667,111.833 115,92.5C 112.804,89.8748 109.97,88.8748 106.5,89.5C 119.792,87.5181 133.459,86.8514 147.5,87.5 Z"/></g>
<g><path style="opacity:1" fill="#f9dd64" d="M 207.5,154.5 C 196.012,155.495 184.345,155.828 172.5,155.5C 175.484,154.663 178.318,153.329 181,151.5C 182.117,141.222 182.617,130.889 182.5,120.5C 182.333,111.5 182.167,102.5 182,93.5C 181.626,92.5838 181.126,91.7504 180.5,91C 177.879,90.0615 175.212,89.2281 172.5,88.5C 184.167,87.1667 195.833,87.1667 207.5,88.5C 204.138,88.8504 201.305,90.1837 199,92.5C 198.333,111.833 198.333,131.167 199,150.5C 200.85,153.841 203.683,155.174 207.5,154.5 Z"/></g>
<g><path style="opacity:1" fill="#53564f" d="M 66.5,91.5 C 64.5,91.5 62.5,91.5 60.5,91.5C 60.5,101.167 60.5,110.833 60.5,120.5C 59.506,110.681 59.1726,100.681 59.5,90.5C 62.0593,90.1984 64.3926,90.5318 66.5,91.5 Z"/></g>
<g><path style="opacity:1" fill="#0e1c48" d="M 66.5,91.5 C 71.3174,91.894 74.6507,94.2273 76.5,98.5C 77.3439,102.099 77.6773,105.766 77.5,109.5C 75.4313,118.384 69.7646,122.051 60.5,120.5C 60.5,110.833 60.5,101.167 60.5,91.5C 62.5,91.5 64.5,91.5 66.5,91.5 Z"/></g>
<g><path style="opacity:1" fill="#636351" d="M 141.5,91.5 C 138.5,91.5 135.5,91.5 132.5,91.5C 132.5,101.167 132.5,110.833 132.5,120.5C 131.506,110.681 131.173,100.681 131.5,90.5C 135.042,90.1872 138.375,90.5206 141.5,91.5 Z"/></g>
<g><path style="opacity:1" fill="#0f1d49" d="M 141.5,91.5 C 144.792,92.0572 147.292,93.7239 149,96.5C 151.268,103.335 150.935,110.002 148,116.5C 143.446,119.959 138.279,121.292 132.5,120.5C 132.5,110.833 132.5,101.167 132.5,91.5C 135.5,91.5 138.5,91.5 141.5,91.5 Z"/></g>
<g><path style="opacity:1" fill="#333b4c" d="M 41.5,90.5 C 42.1174,90.6107 42.6174,90.944 43,91.5C 43.8291,111.671 43.6625,131.671 42.5,151.5C 42.8099,131.121 42.4766,110.787 41.5,90.5 Z"/></g>
<g><path style="opacity:1" fill="#b1b4bb" d="M 31.5,96.5 C 33.1667,96.5 34.8333,96.5 36.5,96.5C 36.5,113.5 36.5,130.5 36.5,147.5C 34.8333,147.5 33.1667,147.5 31.5,147.5C 32.5676,146.566 33.901,146.232 35.5,146.5C 35.5,130.167 35.5,113.833 35.5,97.5C 33.901,97.7678 32.5676,97.4345 31.5,96.5 Z"/></g>
<g><path style="opacity:1" fill="#b0b3bb" d="M 103.5,96.5 C 105.167,96.5 106.833,96.5 108.5,96.5C 108.83,113.342 108.497,130.008 107.5,146.5C 107.5,130.167 107.5,113.833 107.5,97.5C 105.901,97.7678 104.568,97.4345 103.5,96.5 Z"/></g>
<g><path style="opacity:1" fill="#9fa3af" d="M 211.5,95.5 C 210.365,97.2132 208.698,97.8799 206.5,97.5C 206.5,113.833 206.5,130.167 206.5,146.5C 207.791,146.263 208.791,146.596 209.5,147.5C 208.167,147.5 206.833,147.5 205.5,147.5C 205.5,130.5 205.5,113.5 205.5,96.5C 207.5,96.1667 209.5,95.8333 211.5,95.5 Z"/></g>
<g><path style="opacity:1" fill="#757c91" d="M 139.5,98.5 C 138.897,103.619 139.564,108.285 141.5,112.5C 140.791,113.404 139.791,113.737 138.5,113.5C 138.179,108.305 138.513,103.305 139.5,98.5 Z"/></g>
<g><path style="opacity:1" fill="#dcdbd9" d="M 139.5,98.5 C 140.822,98.33 141.989,98.6634 143,99.5C 143.667,103.5 143.667,107.5 143,111.5C 142.617,112.056 142.117,112.389 141.5,112.5C 139.564,108.285 138.897,103.619 139.5,98.5 Z"/></g>
<g><path style="opacity:1" fill="#646c85" d="M 68.5,99.5 C 67.1667,103.833 67.1667,108.167 68.5,112.5C 68.44,113.043 68.1067,113.376 67.5,113.5C 66.1667,108.5 66.1667,103.5 67.5,98.5C 68.1067,98.6236 68.44,98.9569 68.5,99.5 Z"/></g>
<g><path style="opacity:1" fill="#d5d5d4" d="M 68.5,99.5 C 69.1174,99.6107 69.6174,99.944 70,100.5C 70.1667,102.167 70.3333,103.833 70.5,105.5C 70.6839,108.205 70.0173,110.538 68.5,112.5C 67.1667,108.167 67.1667,103.833 68.5,99.5 Z"/></g>
<g><path style="opacity:1" fill="#f5a39e" d="M 231.5,96.5 C 232.092,99.1272 232.425,101.794 232.5,104.5C 230.735,105.461 228.735,105.795 226.5,105.5C 226.683,103.064 226.016,100.897 224.5,99C 225.056,98.6174 225.389,98.1174 225.5,97.5C 227.379,96.6586 229.379,96.3253 231.5,96.5 Z"/></g>
<g><path style="opacity:1" fill="#f4c2bc" d="M 8.5,97.5 C 8.5,97.1667 8.5,96.8333 8.5,96.5C 12.7939,96.577 16.9605,97.2436 21,98.5C 21.8835,105.418 19.0501,107.751 12.5,105.5C 13.388,102.946 13.7214,100.279 13.5,97.5C 11.8333,97.5 10.1667,97.5 8.5,97.5 Z"/></g>
<g><path style="opacity:1" fill="#f4c6c0" d="M 225.5,97.5 C 225.389,98.1174 225.056,98.6174 224.5,99C 226.016,100.897 226.683,103.064 226.5,105.5C 224.965,106.788 223.299,106.788 221.5,105.5C 216.583,99.7466 217.916,97.0799 225.5,97.5 Z"/></g>
<g><path style="opacity:1" fill="#f69f9a" d="M 8.5,97.5 C 10.1667,97.5 11.8333,97.5 13.5,97.5C 13.7214,100.279 13.388,102.946 12.5,105.5C 10.7085,105.634 9.04181,105.301 7.5,104.5C 8.21862,102.236 8.55195,99.9029 8.5,97.5 Z"/></g>
<g><path style="opacity:1" fill="#a39759" d="M 76.5,98.5 C 77.1174,98.6107 77.6174,98.944 78,99.5C 78.8075,103.027 78.6408,106.36 77.5,109.5C 77.6773,105.766 77.3439,102.099 76.5,98.5 Z"/></g>
<g><path style="opacity:1" fill="#777f93" d="M 174.5,146.5 C 174.828,135.986 174.494,125.653 173.5,115.5C 173.783,114.711 174.283,114.044 175,113.5C 175.826,124.674 175.659,135.674 174.5,146.5 Z"/></g>
<g><path style="opacity:1" fill="#f0ede6" d="M 173.5,115.5 C 174.494,125.653 174.828,135.986 174.5,146.5C 172.801,146.34 171.134,146.506 169.5,147C 164.167,152.333 164.167,157.667 169.5,163C 176.826,163.5 184.159,163.666 191.5,163.5C 191.918,164.222 192.584,164.722 193.5,165C 192.833,165.333 192.167,165.667 191.5,166C 193.351,167.752 195.351,169.252 197.5,170.5C 200.85,172.196 204.183,173.863 207.5,175.5C 210.709,177.265 213.709,179.265 216.5,181.5C 210.883,189.719 204.549,197.386 197.5,204.5C 194.167,200.833 190.833,197.167 187.5,193.5C 185.816,190.822 183.816,188.488 181.5,186.5C 179.539,184.037 177.372,181.703 175,179.5C 167.216,182.011 166.716,185.344 173.5,189.5C 175.147,192.473 177.147,195.14 179.5,197.5C 182.833,201.833 186.167,206.167 189.5,210.5C 181.79,217.026 173.123,222.026 163.5,225.5C 161.497,220.162 159.497,214.829 157.5,209.5C 156.637,207.579 155.971,205.579 155.5,203.5C 155.06,200.62 154.06,197.954 152.5,195.5C 151.962,193.883 151.629,192.216 151.5,190.5C 148.751,190.274 146.084,190.607 143.5,191.5C 142.334,193.167 142.334,194.834 143.5,196.5C 144.728,200.292 146.061,203.958 147.5,207.5C 148.129,210.397 149.129,213.064 150.5,215.5C 152.234,219.702 153.567,224.035 154.5,228.5C 145.146,231.781 135.479,233.448 125.5,233.5C 125.5,223.833 125.5,214.167 125.5,204.5C 125.665,201.482 125.498,198.482 125,195.5C 123.82,194.316 122.32,193.649 120.5,193.5C 118.68,193.649 117.18,194.316 116,195.5C 115.502,198.482 115.335,201.482 115.5,204.5C 115.5,214.167 115.5,223.833 115.5,233.5C 105.433,233.484 95.766,231.817 86.5,228.5C 87.2967,224.777 88.2967,221.11 89.5,217.5C 91.2671,215.208 92.2671,212.542 92.5,209.5C 93.6737,208.486 94.3404,207.153 94.5,205.5C 96.063,201.339 97.3964,197.005 98.5,192.5C 95.4465,191.679 92.4465,191.679 89.5,192.5C 88.4866,195.188 87.4866,197.854 86.5,200.5C 85.7148,202.374 85.0482,204.374 84.5,206.5C 83.8333,208.5 83.1667,210.5 82.5,212.5C 80.5586,216.718 78.8919,221.051 77.5,225.5C 67.5934,222.55 58.9267,217.55 51.5,210.5C 54.5,206.5 57.5,202.5 60.5,198.5C 62.8777,196.122 64.8777,193.455 66.5,190.5C 68.4788,189.188 70.1455,187.521 71.5,185.5C 69.5,184.167 67.5,182.833 65.5,181.5C 61.5256,183.809 58.1923,186.809 55.5,190.5C 53.863,192.475 52.1964,194.475 50.5,196.5C 48.1377,199.192 45.8044,201.859 43.5,204.5C 36.2606,198.683 29.9273,192.016 24.5,184.5C 23.5987,183.71 22.9321,182.71 22.5,181.5C 25.7598,180.226 28.7598,178.56 31.5,176.5C 34.1316,175.528 36.4649,174.195 38.5,172.5C 42.2607,171.453 45.594,169.619 48.5,167C 47.2899,165.961 46.2899,164.794 45.5,163.5C 54.1731,163.666 62.8397,163.5 71.5,163C 72.9663,162.365 74.2997,161.531 75.5,160.5C 76.7003,161.531 78.0337,162.365 79.5,163C 100.5,163.667 121.5,163.667 142.5,163C 144.624,161.878 146.457,160.378 148,158.5C 149.86,152.888 148.027,149.221 142.5,147.5C 141.791,146.596 140.791,146.263 139.5,146.5C 139.5,141.833 139.5,137.167 139.5,132.5C 141.099,132.768 142.432,132.434 143.5,131.5C 147.56,131.515 151.56,131.015 155.5,130C 163.707,127.751 169.707,122.918 173.5,115.5 Z"/></g>
<g><path style="opacity:1" fill="#4e514f" d="M 63.5,126.5 C 62.8501,126.196 62.1835,125.863 61.5,125.5C 60.5025,133.138 60.1692,140.804 60.5,148.5C 59.5076,140.684 59.1743,132.684 59.5,124.5C 61.4832,124.157 62.8166,124.824 63.5,126.5 Z"/></g>
<g><path style="opacity:1" fill="#5f5f51" d="M 146.5,124.5 C 142.03,125.486 137.363,125.819 132.5,125.5C 132.5,133.5 132.5,141.5 132.5,149.5C 131.507,141.35 131.174,133.017 131.5,124.5C 136.5,124.5 141.5,124.5 146.5,124.5 Z"/></g>
<g><path style="opacity:1" fill="#6f778d" d="M 143.5,131.5 C 142.432,132.434 141.099,132.768 139.5,132.5C 139.5,137.167 139.5,141.833 139.5,146.5C 140.791,146.263 141.791,146.596 142.5,147.5C 141.167,147.5 139.833,147.5 138.5,147.5C 138.5,142.167 138.5,136.833 138.5,131.5C 140.167,131.5 141.833,131.5 143.5,131.5 Z"/></g>
<g><path style="opacity:1" fill="#f4c5bf" d="M 15.5,143.5 C 16.2625,142.732 17.2625,142.232 18.5,142C 16.9588,140.421 15.7922,138.587 15,136.5C 13.3005,135.594 11.4672,135.261 9.5,135.5C 13.0306,134.77 16.6973,134.104 20.5,133.5C 21.8289,136.158 23.1622,138.824 24.5,141.5C 21.6727,142.932 18.6727,143.599 15.5,143.5 Z"/></g>
<g><path style="opacity:1" fill="#f5bcb6" d="M 231.5,135.5 C 229.833,135.5 228.167,135.5 226.5,135.5C 226.587,138.598 226.087,138.932 225,136.5C 224.837,138.676 224.004,140.509 222.5,142C 223.737,142.232 224.737,142.732 225.5,143.5C 222.327,143.599 219.327,142.932 216.5,141.5C 217.137,139.697 218.303,138.364 220,137.5C 220.333,136.167 220.667,134.833 221,133.5C 224.603,134.135 228.103,134.802 231.5,135.5 Z"/></g>
<g><path style="opacity:0.984" fill="#f7928e" d="M 9.5,135.5 C 11.4672,135.261 13.3005,135.594 15,136.5C 15.7922,138.587 16.9588,140.421 18.5,142C 17.2625,142.232 16.2625,142.732 15.5,143.5C 13.283,144.369 10.9496,144.702 8.5,144.5C 8.59868,141.763 8.26535,139.096 7.5,136.5C 8.16667,136.167 8.83333,135.833 9.5,135.5 Z"/></g>
<g><path style="opacity:1" fill="#f59995" d="M 231.5,135.5 C 232.167,135.5 232.5,135.833 232.5,136.5C 232.425,139.206 232.092,141.873 231.5,144.5C 229.379,144.675 227.379,144.341 225.5,143.5C 224.737,142.732 223.737,142.232 222.5,142C 224.004,140.509 224.837,138.676 225,136.5C 226.087,138.932 226.587,138.598 226.5,135.5C 228.167,135.5 229.833,135.5 231.5,135.5 Z"/></g>
<g><path style="opacity:1" fill="#7f7a55" d="M 34.5,154.5 C 45.988,155.495 57.6547,155.828 69.5,155.5C 57.6602,156.825 45.6602,156.825 33.5,155.5C 33.6236,154.893 33.9569,154.56 34.5,154.5 Z"/></g>
<g><path style="opacity:1" fill="#7c7755" d="M 110.5,153.5 C 109.391,154.29 108.058,154.79 106.5,155C 118.008,155.826 129.341,155.659 140.5,154.5C 141.043,154.56 141.376,154.893 141.5,155.5C 129.518,156.499 117.518,156.832 105.5,156.5C 105.5,155.5 105.5,154.5 105.5,153.5C 107.167,153.5 108.833,153.5 110.5,153.5 Z"/></g>
<g><path style="opacity:1" fill="#7f7a55" d="M 207.5,154.5 C 208.043,154.56 208.376,154.893 208.5,155.5C 196.34,156.825 184.34,156.825 172.5,155.5C 184.345,155.828 196.012,155.495 207.5,154.5 Z"/></g>
<g><path style="opacity:1" fill="#eeb9b5" d="M 191.5,163.5 C 195.833,163.5 200.167,163.5 204.5,163.5C 204.5,163.833 204.5,164.167 204.5,164.5C 201.573,165.757 199.239,167.757 197.5,170.5C 195.351,169.252 193.351,167.752 191.5,166C 192.167,165.667 192.833,165.333 193.5,165C 192.584,164.722 191.918,164.222 191.5,163.5 Z"/></g>
<g><path style="opacity:1" fill="#f4a9a4" d="M 34.5,163.5 C 38.1667,163.5 41.8333,163.5 45.5,163.5C 46.2899,164.794 47.2899,165.961 48.5,167C 45.594,169.619 42.2607,171.453 38.5,172.5C 39.7065,171.12 39.3731,169.953 37.5,169C 36.5509,168.383 35.7175,168.549 35,169.5C 33.8904,167.963 32.3904,167.297 30.5,167.5C 32.1392,166.527 33.4726,165.194 34.5,163.5 Z"/></g>
<g><path style="opacity:1" fill="#f88984" d="M 204.5,164.5 C 208.655,165.742 212.322,167.742 215.5,170.5C 212.235,170.918 209.235,172.085 206.5,174C 207.056,174.383 207.389,174.883 207.5,175.5C 204.183,173.863 200.85,172.196 197.5,170.5C 199.239,167.757 201.573,165.757 204.5,164.5 Z"/></g>
<g><path style="opacity:1" fill="#f87c78" d="M 30.5,167.5 C 32.3904,167.297 33.8904,167.963 35,169.5C 35.7175,168.549 36.5509,168.383 37.5,169C 39.3731,169.953 39.7065,171.12 38.5,172.5C 36.4649,174.195 34.1316,175.528 31.5,176.5C 31.1847,172.2 28.8514,170.533 24.5,171.5C 25.8021,169.178 27.8021,167.845 30.5,167.5 Z"/></g>
<g><path style="opacity:1" fill="#f55350" d="M 215.5,170.5 C 217.368,171.263 219.035,172.263 220.5,173.5C 219.674,176.485 218.341,179.151 216.5,181.5C 213.709,179.265 210.709,177.265 207.5,175.5C 207.389,174.883 207.056,174.383 206.5,174C 209.235,172.085 212.235,170.918 215.5,170.5 Z"/></g>
<g><path style="opacity:0.565" fill="#f74f4c" d="M 24.5,171.5 C 28.8514,170.533 31.1847,172.2 31.5,176.5C 28.7598,178.56 25.7598,180.226 22.5,181.5C 21.1667,178.833 19.8333,176.167 18.5,173.5C 20.5,172.833 22.5,172.167 24.5,171.5 Z"/></g>
<g><path style="opacity:1" fill="#f79893" d="M 66.5,190.5 C 63.8822,190.221 61.3822,189.554 59,188.5C 58.1841,189.823 57.0174,190.489 55.5,190.5C 58.1923,186.809 61.5256,183.809 65.5,181.5C 67.5,182.833 69.5,184.167 71.5,185.5C 70.1455,187.521 68.4788,189.188 66.5,190.5 Z"/></g>
<g><path style="opacity:1" fill="#f6a39e" d="M 181.5,186.5 C 178.62,186.94 175.954,187.94 173.5,189.5C 166.716,185.344 167.216,182.011 175,179.5C 177.372,181.703 179.539,184.037 181.5,186.5 Z"/></g>
<g><path style="opacity:1" fill="#f97470" d="M 181.5,186.5 C 183.816,188.488 185.816,190.822 187.5,193.5C 183.74,192.774 181.073,194.107 179.5,197.5C 177.147,195.14 175.147,192.473 173.5,189.5C 175.954,187.94 178.62,186.94 181.5,186.5 Z"/></g>
<g><path style="opacity:1" fill="#f4c6c0" d="M 152.5,195.5 C 151.883,195.389 151.383,195.056 151,194.5C 148.699,195.867 146.199,196.534 143.5,196.5C 142.334,194.834 142.334,193.167 143.5,191.5C 146.084,190.607 148.751,190.274 151.5,190.5C 151.629,192.216 151.962,193.883 152.5,195.5 Z"/></g>
<g><path style="opacity:1" fill="#f96763" d="M 66.5,190.5 C 64.8777,193.455 62.8777,196.122 60.5,198.5C 60.5858,197.504 60.2524,196.671 59.5,196C 58,195.5 56.5,195 55,194.5C 53.5936,195.414 52.0936,196.08 50.5,196.5C 52.1964,194.475 53.863,192.475 55.5,190.5C 57.0174,190.489 58.1841,189.823 59,188.5C 61.3822,189.554 63.8822,190.221 66.5,190.5 Z"/></g>
<g><path style="opacity:1" fill="#f3cec8" d="M 125.5,204.5 C 124.532,202.393 124.198,200.059 124.5,197.5C 121.833,197.5 119.167,197.5 116.5,197.5C 116.802,200.059 116.468,202.393 115.5,204.5C 115.335,201.482 115.502,198.482 116,195.5C 117.18,194.316 118.68,193.649 120.5,193.5C 122.32,193.649 123.82,194.316 125,195.5C 125.498,198.482 125.665,201.482 125.5,204.5 Z"/></g>
<g><path style="opacity:1" fill="#f6a49f" d="M 94.5,205.5 C 94.5,203.833 94.5,202.167 94.5,200.5C 91.7342,199.768 89.0675,199.768 86.5,200.5C 87.4866,197.854 88.4866,195.188 89.5,192.5C 92.4465,191.679 95.4465,191.679 98.5,192.5C 97.3964,197.005 96.063,201.339 94.5,205.5 Z"/></g>
<g><path style="opacity:1" fill="#f7948f" d="M 152.5,195.5 C 154.06,197.954 155.06,200.62 155.5,203.5C 153.393,201.15 151.059,201.15 148.5,203.5C 147.571,204.689 147.238,206.022 147.5,207.5C 146.061,203.958 144.728,200.292 143.5,196.5C 146.199,196.534 148.699,195.867 151,194.5C 151.383,195.056 151.883,195.389 152.5,195.5 Z"/></g>
<g><path style="opacity:1" fill="#f63d39" d="M 187.5,193.5 C 190.833,197.167 194.167,200.833 197.5,204.5C 195.122,206.878 192.455,208.878 189.5,210.5C 186.167,206.167 182.833,201.833 179.5,197.5C 181.073,194.107 183.74,192.774 187.5,193.5 Z"/></g>
<g><path style="opacity:1" fill="#f73a36" d="M 60.5,198.5 C 57.5,202.5 54.5,206.5 51.5,210.5C 48.1092,209.471 45.4426,207.471 43.5,204.5C 45.8044,201.859 48.1377,199.192 50.5,196.5C 52.0936,196.08 53.5936,195.414 55,194.5C 56.5,195 58,195.5 59.5,196C 60.2524,196.671 60.5858,197.504 60.5,198.5 Z"/></g>
<g><path style="opacity:1" fill="#f59792" d="M 125.5,204.5 C 125.5,214.167 125.5,223.833 125.5,233.5C 125.5,234.167 125.167,234.5 124.5,234.5C 124.5,227.833 124.5,221.167 124.5,214.5C 124.5,211.5 124.5,208.5 124.5,205.5C 121.833,205.5 119.167,205.5 116.5,205.5C 116.5,208.5 116.5,211.5 116.5,214.5C 116.5,221.167 116.5,227.833 116.5,234.5C 115.833,234.5 115.5,234.167 115.5,233.5C 115.5,223.833 115.5,214.167 115.5,204.5C 116.468,202.393 116.802,200.059 116.5,197.5C 119.167,197.5 121.833,197.5 124.5,197.5C 124.198,200.059 124.532,202.393 125.5,204.5 Z"/></g>
<g><path style="opacity:1" fill="#f97470" d="M 94.5,205.5 C 94.3404,207.153 93.6737,208.486 92.5,209.5C 90.3155,207.415 87.6489,206.415 84.5,206.5C 85.0482,204.374 85.7148,202.374 86.5,200.5C 89.0675,199.768 91.7342,199.768 94.5,200.5C 94.5,202.167 94.5,203.833 94.5,205.5 Z"/></g>
<g><path style="opacity:1" fill="#f9625e" d="M 155.5,203.5 C 155.971,205.579 156.637,207.579 157.5,209.5C 153.22,209.446 150.886,211.446 150.5,215.5C 149.129,213.064 148.129,210.397 147.5,207.5C 147.238,206.022 147.571,204.689 148.5,203.5C 151.059,201.15 153.393,201.15 155.5,203.5 Z"/></g>
<g><path style="opacity:1" fill="#fa504e" d="M 84.5,206.5 C 87.6489,206.415 90.3155,207.415 92.5,209.5C 92.2671,212.542 91.2671,215.208 89.5,217.5C 88.5392,214.165 86.2059,212.499 82.5,212.5C 83.1667,210.5 83.8333,208.5 84.5,206.5 Z"/></g>
<g><path style="opacity:1" fill="#f96865" d="M 124.5,214.5 C 121.833,214.5 119.167,214.5 116.5,214.5C 116.5,211.5 116.5,208.5 116.5,205.5C 119.167,205.5 121.833,205.5 124.5,205.5C 124.5,208.5 124.5,211.5 124.5,214.5 Z"/></g>
<g><path style="opacity:1" fill="#f72c2a" d="M 82.5,212.5 C 86.2059,212.499 88.5392,214.165 89.5,217.5C 88.2967,221.11 87.2967,224.777 86.5,228.5C 83.0836,228.472 80.0836,227.472 77.5,225.5C 78.8919,221.051 80.5586,216.718 82.5,212.5 Z"/></g>
<g><path style="opacity:1" fill="#f7302d" d="M 157.5,209.5 C 159.497,214.829 161.497,220.162 163.5,225.5C 160.916,227.472 157.916,228.472 154.5,228.5C 153.567,224.035 152.234,219.702 150.5,215.5C 150.886,211.446 153.22,209.446 157.5,209.5 Z"/></g>
<g><path style="opacity:1" fill="#f92d2a" d="M 116.5,214.5 C 119.167,214.5 121.833,214.5 124.5,214.5C 124.5,221.167 124.5,227.833 124.5,234.5C 121.833,234.5 119.167,234.5 116.5,234.5C 116.5,227.833 116.5,221.167 116.5,214.5 Z"/></g>
</svg>
